<svg xmlns="http://www.w3.org/2000/svg" width="116" height="39" viewBox="0 0 116 39"><g fill="none"><path fill="#1B1F31" d="M54.877 25.796v-5.84c0-1.704-.933-2.962-2.677-2.962-1.703 0-2.84 1.42-2.84 3.123v5.679h-2.717V14.642h2.474l.163 1.5c1.135-1.094 2.271-1.662 3.65-1.662 2.636 0 4.705 1.947 4.705 5.475v5.84h-2.758zm7.503-11.154v5.84c0 1.704.933 2.961 2.677 2.961 1.704 0 2.84-1.42 2.84-3.123v-5.678h2.717v11.154H68.14l-.162-1.5c-1.136 1.135-2.231 1.662-3.772 1.662-2.677 0-4.624-2.028-4.624-5.475v-5.841h2.798zm18.09 11.154v-5.962c0-1.46-.77-2.799-2.271-2.799s-2.353 1.338-2.353 2.799v5.962h-2.758V14.642h2.555l.203 1.338c.568-1.135 1.866-1.54 2.92-1.54 1.339 0 2.677.526 3.286 2.068.973-1.582 2.271-2.028 3.731-2.028 3.164 0 4.705 1.947 4.705 5.272v6.003H87.73v-5.962c0-1.46-.608-2.717-2.109-2.717-1.5 0-2.434 1.297-2.434 2.758v5.962H80.47zm15.17-11.154v5.84c0 1.704.932 2.961 2.676 2.961 1.704 0 2.84-1.42 2.84-3.123v-5.678h2.717v11.154h-2.474l-.163-1.5c-1.135 1.135-2.23 1.662-3.772 1.662-2.677 0-4.623-2.028-4.623-5.475v-5.841h2.798zm17.967 2.961c-.77-.73-1.704-.974-2.758-.974-1.298 0-2.028.406-2.028 1.095 0 .73.649 1.136 2.069 1.217 2.109.122 4.745.609 4.745 3.57 0 1.946-1.622 3.65-4.786 3.65-1.744 0-3.529-.284-5.151-1.988l1.338-1.946c.771.892 2.596 1.54 3.854 1.54 1.054.041 2.027-.526 2.027-1.338 0-.77-.648-1.095-2.23-1.176-2.11-.162-4.624-.933-4.624-3.447 0-2.556 2.677-3.489 4.705-3.489 1.744 0 3.042.325 4.34 1.46l-1.501 1.826zM24.863 38.897h-10.91c-7.585 0-13.75-6.166-13.75-13.75V13.912c0-7.585 6.165-13.75 13.75-13.75h10.91c7.585 0 13.75 6.165 13.75 13.75v11.275c-.041 7.585-6.165 13.71-13.75 13.71"/><path fill="#FFF" d="M26.688 32.123H12.087c-3.326 0-6.003-2.84-6.003-6.287v-6.733c0-3.488 2.717-6.286 6.003-6.286h14.601c3.326 0 6.003 2.839 6.003 6.286v6.733c.04 3.448-2.677 6.287-6.003 6.287zM12.128 14.4c-2.475 0-4.503 2.109-4.503 4.704v6.733c0 2.596 2.028 4.705 4.502 4.705H26.73c2.474 0 4.502-2.109 4.502-4.705v-6.733c0-2.595-2.028-4.704-4.502-4.704H12.127zm8.355-7.383c-.122-.122-.284-.203-.406-.284-.081-.04-.203-.081-.284-.122-.04 0-.081-.04-.162-.04s-.203-.04-.284-.04c-.406 0-.811.161-1.176.445l-6.53 5.84h2.27l1.745-1.54 3.366-2.961c.081-.081.163-.122.244-.122h.162c.04 0 .04 0 .081.04.04.041.122.041.162.122l5.07 4.462h2.272l-6.53-5.8z"/><path fill="#FFF" d="M14.723 8.152l1.825-1.622h-4.42c-3.327 0-6.004 3.042-6.004 6.773v8.72h1.542v-8.679c0-2.84 2.028-5.192 4.502-5.192h2.555zM26.688 6.57h-4.583l1.825 1.623h2.758c2.474 0 4.502 2.312 4.502 5.192v8.72h1.541v-8.76c0-3.732-2.717-6.774-6.043-6.774M17.4 30.744v-6.206c0-1.176.892-2.109 2.028-2.109 1.095 0 2.028.933 2.028 2.11v6.164h1.541v-6.165c0-2.068-1.582-3.731-3.569-3.731-1.987 0-3.57 1.663-3.57 3.731v6.165H17.4v.041z"/></g></svg>